PathFileType	4	(X/Y/Z)	s10c0102.trc
DataRate	CameraRate	NumFrames	NumMarkers	Units	OrigDataRate	OrigDataStartFrame	OrigNumFrames
200	200	4	50	mm	200	250	2000
Frame#	Time	racr			lacr			c7			jug			rlel			rdr			llel			ldr			s2			lic			ric			lasi			rasi			rpsi			lpsi			rgt			lgt			rth1			rth2			rth3			rth4			rlfc			rmfc			rsh1			rsh2			rsh3			rsh4			rlmal			rmmal			rcal			rtoe			rmt5			lth1			lth2			lth4			lth3			llfc			lmfc			llmal			lmmal			lcal			lmt5			lsh1			lsh2			lsh3			lsh4			ltoe			SBIKE			LBIKE			RBIKE			
		X1	Y1	Z1	X2	Y2	Z2	X3	Y3	Z3	X4	Y4	Z4	X5	Y5	Z5	X6	Y6	Z6	X7	Y7	Z7	X8	Y8	Z8	X9	Y9	Z9	X10	Y10	Z10	X11	Y11	Z11	X12	Y12	Z12	X13	Y13	Z13	X14	Y14	Z14	X15	Y15	Z15	X16	Y16	Z16	X17	Y17	Z17	X18	Y18	Z18	X19	Y19	Z19	X20	Y20	Z20	X21	Y21	Z21	X22	Y22	Z22	X23	Y23	Z23	X24	Y24	Z24	X25	Y25	Z25	X26	Y26	Z26	X27	Y27	Z27	X28	Y28	Z28	X29	Y29	Z29	X30	Y30	Z30	X31	Y31	Z31	X32	Y32	Z32	X33	Y33	Z33	X34	Y34	Z34	X35	Y35	Z35	X36	Y36	Z36	X37	Y37	Z37	X38	Y38	Z38	X39	Y39	Z39	X40	Y40	Z40	X41	Y41	Z41	X42	Y42	Z42	X43	Y43	Z43	X44	Y44	Z44	X45	Y45	Z45	X46	Y46	Z46	X47	Y47	Z47	X48	Y48	Z48	X49	Y49	Z49	X50	Y50	Z50	
250	1.2500	404.802161	1276.734307	-54.465206	397.027035	1300.457443	-357.156883	356.385339	1337.634209	-200.634057	362.502233	1190.440709	-205.192996	480.810991	1027.902579	19.066008	642.562831	877.474909	-44.813500	448.526811	1034.448876	-456.827835	634.194088	900.660939	-413.797610	-152.012957	1098.746923	-187.466697	-6.856568	1151.064750	-351.083899	43.071187	1117.312784	-60.307255	24.943541	1060.781666	-333.689088	46.200134	1033.239957	-75.118575	-106.524846	1156.713114	-128.312786	-115.608610	1177.450798	-236.728802	-63.421422	992.676919	-17.421942	-80.094812	1017.252536	-398.781622	20.369748	875.399726	-2.352272	88.800614	820.745241	-19.554876	119.196291	741.344879	-27.153806	116.681386	844.447530	-27.040246	175.995673	652.977779	-42.264127	172.867640	643.293745	-158.062973	106.013661	558.303623	-16.742361	100.608683	470.684818	-30.090811	53.327841	398.666434	-38.072309	131.322138	463.986405	-52.054943	18.757591	302.583798	-55.329907	46.970990	310.002890	-133.650348	-29.793402	315.115327	-106.765727	152.397494	153.869629	-100.675727	71.313099	184.158146	-41.225508	41.904064	955.431476	-412.095431	126.512738	951.579508	-394.771128	135.559015	985.126054	-383.181723	201.607296	904.249077	-391.283901	306.141555	861.177196	-368.881605	302.717504	849.088045	-247.242937	133.518696	521.676841	-381.545438	144.375265	523.764119	-295.541553	77.422902	475.541092	-337.737737	253.085149	455.713616	-406.723463	243.355266	758.195521	-399.776506	232.503247	671.289926	-389.274233	177.829169	601.265630	-391.455000	257.675029	663.067683	-361.453674	330.076880	498.399648	-350.831445	-218.022598	833.127619	-213.864851	-104.024539	80.397618	-418.399710	-103.990705	80.402652	-18.359959	
251	1.2550	405.157812	1276.936834	-56.562842	395.442603	1299.400368	-358.929903	355.668071	1337.196161	-202.326421	361.596490	1189.917393	-206.477585	481.127905	1028.397445	17.779439	642.585119	877.446126	-44.824919	447.327807	1032.815463	-456.980521	633.790126	900.773588	-413.863104	-152.454766	1098.826999	-187.700915	-7.669453	1151.067511	-351.215415	41.843227	1117.862732	-60.222662	24.228254	1060.700592	-333.812126	44.879135	1033.966678	-74.990079	-107.737035	1157.193291	-128.522675	-116.514201	1177.671081	-237.096211	-64.450940	993.530096	-16.926724	-80.661280	1016.965776	-398.670143	20.707732	876.492892	-2.168606	89.415545	822.293061	-19.739844	120.296047	743.240304	-27.432973	117.059787	846.348174	-27.445763	176.860838	654.913019	-42.828854	173.001129	645.203809	-158.715030	105.298144	561.024437	-17.310355	98.964650	473.298841	-30.525425	50.855185	402.011453	-38.650433	129.667347	466.308700	-52.385881	15.272151	305.246728	-55.905118	43.645108	312.691997	-134.081674	-33.437862	317.463013	-107.242790	149.135547	156.486054	-100.631943	67.995762	186.893096	-41.280605	41.456482	954.327353	-411.900118	126.016827	949.988095	-394.531919	135.317276	983.539346	-383.057602	200.798332	902.178546	-390.633470	305.269842	859.092329	-368.365457	301.167446	847.174059	-246.926502	135.588805	517.752849	-380.799852	146.433305	520.005447	-295.484659	80.084807	471.291726	-337.739949	255.972829	453.106286	-406.772097	242.785047	756.009586	-399.219083	233.069352	668.930814	-388.937511	179.283650	598.459192	-391.818350	258.359416	660.868531	-361.296246	332.578721	496.458867	-350.845995	-218.037192	833.120708	-213.869486	-104.018890	80.410137	-418.409482	-103.991773	80.399274	-18.349802	
252	1.2600	405.587646	1277.183551	-58.659959	393.966976	1298.322844	-360.761984	355.016097	1336.768352	-204.062513	360.767266	1189.300710	-207.756520	481.385866	1028.863507	16.572339	642.584966	877.433766	-44.854349	446.065423	1031.107928	-457.218894	633.364160	900.903410	-413.843562	-152.933157	1099.069609	-188.033079	-8.431258	1151.009296	-351.444708	40.566041	1118.496942	-60.321847	23.591882	1060.632667	-333.907258	43.558327	1034.721607	-74.819956	-108.989959	1157.970982	-128.878941	-117.340127	1177.863754	-237.431749	-65.512369	994.517527	-16.419348	-81.190476	1016.696326	-398.566319	20.935407	877.792181	-1.943881	89.861101	823.987856	-19.963246	121.199222	745.062998	-27.763411	117.317356	848.125143	-27.896271	177.678402	656.965932	-43.336438	173.117794	647.145954	-159.180187	104.395500	563.759472	-17.839473	97.118072	476.227154	-31.002549	48.224821	405.305706	-39.486562	127.894698	468.710761	-52.641507	11.757302	307.988827	-56.458449	40.480439	315.748248	-134.420138	-37.081894	320.085876	-107.661312	145.950378	159.270405	-100.606341	64.742351	189.553232	-41.403773	40.912046	953.201287	-411.675664	125.414224	948.308872	-394.266980	134.936928	981.884927	-382.999206	199.853680	899.988419	-389.992126	304.085940	857.263541	-367.662115	299.416055	845.486880	-246.123586	137.777376	514.172334	-380.958464	148.705889	516.393329	-295.405672	82.846459	467.252839	-338.141353	258.827180	450.450945	-406.832606	242.212114	753.671438	-398.717519	233.516035	666.392396	-388.809785	180.587047	595.303395	-391.537788	259.051308	658.562946	-361.232197	335.043917	494.460564	-350.859651	-218.072332	833.134908	-213.856694	-104.012305	80.424720	-418.396233	-103.998719	80.402068	-18.349151	
253	1.2650	406.081224	1277.354728	-60.789384	392.404422	1297.226387	-362.481155	354.383246	1336.276594	-205.715709	359.936408	1188.745529	-209.003398	481.746139	1029.382954	15.494629	642.589395	877.401508	-44.844826	444.700263	1029.384879	-457.499940	632.936398	901.050869	-413.902389	-153.573135	1099.509493	-188.440575	-9.052535	1150.937654	-351.829806	39.026620	1119.877079	-58.956731	23.024880	1060.513663	-334.096975	42.692765	1035.409941	-74.242508	-110.138151	1158.647084	-129.282512	-118.330671	1178.468029	-236.761568	-66.524601	995.466902	-16.038744	-81.715293	1016.390990	-398.442227	21.199886	879.014308	-1.801381	90.244303	825.655630	-20.220006	122.131443	746.838990	-27.980401	117.449723	849.890520	-28.442045	178.406157	659.035889	-43.761071	173.175570	649.096820	-159.627688	103.462732	566.615455	-18.395350	95.252623	479.015320	-31.473350	45.563791	408.795269	-39.846231	126.068055	471.109506	-52.825671	8.297479	310.674509	-56.892392	36.880887	318.820402	-134.698715	-40.733354	322.575842	-108.009665	142.870395	162.237935	-100.465228	61.468434	192.455264	-41.449577	40.260665	952.055191	-411.532385	124.759864	946.629074	-394.088150	134.454765	980.182183	-382.994416	198.805101	897.752560	-389.472876	302.837420	855.258105	-367.157311	297.465078	843.637088	-245.753821	139.904674	510.191330	-380.720378	150.822916	512.694495	-295.224650	85.351019	462.695999	-337.776716	261.600359	447.766609	-406.845497	241.481730	751.174179	-398.252325	233.904484	663.806909	-388.666272	181.818843	592.036299	-391.344984	259.667004	656.260602	-361.185723	337.442149	492.405044	-350.901194	-218.091458	833.141970	-213.862487	-104.035365	80.400632	-418.392148	-103.997058	80.393685	-18.346339	
